<svg xmlns="http://www.w3.org/2000/svg" viewBox="0 0 200 200" fill="none" aria-hidden="true">
  <defs>
    <linearGradient id="logoGrad" x1="28" y1="28" x2="172" y2="172" gradientUnits="userSpaceOnUse">
      <stop stop-color="#818cf8"/>
      <stop offset="1" stop-color="#38bdf8"/>
    </linearGradient>
  </defs>
  <path d="M28 55 L28 28 L55 28" stroke="url(#logoGrad)" stroke-width="5" stroke-linecap="round" fill="none" opacity="0.5" />
  <path d="M145 28 L172 28 L172 55" stroke="url(#logoGrad)" stroke-width="5" stroke-linecap="round" fill="none" opacity="0.5" />
  <path d="M28 145 L28 172 L55 172" stroke="url(#logoGrad)" stroke-width="5" stroke-linecap="round" fill="none" opacity="0.5" />
  <path d="M145 172 L172 172 L172 145" stroke="url(#logoGrad)" stroke-width="5" stroke-linecap="round" fill="none" opacity="0.5" />
  <ellipse cx="100" cy="88" rx="38" ry="46" stroke="url(#logoGrad)" stroke-width="4" opacity="0.25" fill="url(#logoGrad)" fill-opacity="0.06" />
  <line x1="50" y1="88" x2="150" y2="88" stroke="url(#logoGrad)" stroke-width="2" stroke-dasharray="6 4" opacity="0.4" />
  <circle cx="82" cy="76" r="4.5" fill="url(#logoGrad)" opacity="0.9" />
  <circle cx="118" cy="76" r="4.5" fill="url(#logoGrad)" opacity="0.9" />
  <circle cx="100" cy="102" r="4" fill="url(#logoGrad)" opacity="0.7" />
  <circle cx="74" cy="96" r="3" fill="url(#logoGrad)" opacity="0.5" />
  <circle cx="126" cy="96" r="3" fill="url(#logoGrad)" opacity="0.5" />
  <circle cx="100" cy="64" r="3" fill="url(#logoGrad)" opacity="0.5" />
  <line x1="82" y1="76" x2="100" y2="102" stroke="url(#logoGrad)" stroke-width="1.5" opacity="0.2" />
  <line x1="118" y1="76" x2="100" y2="102" stroke="url(#logoGrad)" stroke-width="1.5" opacity="0.2" />
  <line x1="82" y1="76" x2="74" y2="96" stroke="url(#logoGrad)" stroke-width="1.5" opacity="0.2" />
  <line x1="118" y1="76" x2="126" y2="96" stroke="url(#logoGrad)" stroke-width="1.5" opacity="0.2" />
  <line x1="74" y1="96" x2="100" y2="102" stroke="url(#logoGrad)" stroke-width="1.5" opacity="0.2" />
  <line x1="126" y1="96" x2="100" y2="102" stroke="url(#logoGrad)" stroke-width="1.5" opacity="0.2" />
  <line x1="82" y1="76" x2="100" y2="64" stroke="url(#logoGrad)" stroke-width="1.5" opacity="0.2" />
  <line x1="118" y1="76" x2="100" y2="64" stroke="url(#logoGrad)" stroke-width="1.5" opacity="0.2" />
  <g transform="translate(152, 38)" opacity="0.8">
    <line x1="0" y1="-8" x2="0" y2="8" stroke="url(#logoGrad)" stroke-width="2.5" stroke-linecap="round" />
    <line x1="-8" y1="0" x2="8" y2="0" stroke="url(#logoGrad)" stroke-width="2.5" stroke-linecap="round" />
    <line x1="-5" y1="-5" x2="5" y2="5" stroke="url(#logoGrad)" stroke-width="1.5" stroke-linecap="round" />
    <line x1="5" y1="-5" x2="-5" y2="5" stroke="url(#logoGrad)" stroke-width="1.5" stroke-linecap="round" />
  </g>
  <path d="M88 150 L97 159 L114 140" stroke="url(#logoGrad)" stroke-width="4.5" stroke-linecap="round" stroke-linejoin="round" opacity="0.7" />
</svg>
